<?xml version="1.0" standalone="no"?>
<!DOCTYPE svg PUBLIC "-//W3C//DTD SVG 20010904//EN"
 "http://www.w3.org/TR/2001/REC-SVG-20010904/DTD/svg10.dtd">
<svg version="1.0" xmlns="http://www.w3.org/2000/svg"
 width="600.000000pt" height="300.000000pt" viewBox="0 0 600.000000 300.000000"
 preserveAspectRatio="xMidYMid meet">

<g transform="translate(0.000000,300.000000) scale(0.100000,-0.100000)"
fill="#000000" stroke="none">
<path d="M2093 1957 c-60 -22 -117 -72 -147 -127 -24 -45 -29 -65 -28 -118 1
-102 40 -169 162 -282 114 -105 140 -142 140 -197 0 -71 -67 -109 -165 -93
-65 11 -106 31 -134 66 -28 36 -26 73 5 119 24 35 26 65 5 65 -18 0 -70 -71
-77 -105 -5 -26 0 -47 17 -82 39 -77 109 -113 224 -113 107 0 171 52 169 138
-1 69 -24 104 -149 232 -62 63 -120 129 -128 146 -72 141 27 313 180 316 39 0
51 -4 70 -26 28 -33 29 -76 4 -131 -21 -46 -89 -112 -126 -121 -28 -7 -34 -31
-10 -40 30 -12 71 9 122 61 76 78 100 174 61 248 -26 50 -121 71 -195 44z"/>
<path d="M3357 1713 c-12 -12 -7 -60 8 -73 35 -29 77 11 57 54 -11 25 -49 36
-65 19z"/>
<path d="M2987 1622 c-28 -31 -20 -61 28 -110 l46 -45 -21 -111 c-32 -170 -41
-204 -56 -217 -38 -32 -58 23 -74 205 -15 176 -54 261 -117 254 -22 -2 -34
-14 -56 -55 -27 -50 -39 -96 -73 -283 -19 -102 -33 -135 -59 -135 -26 0 -42
58 -55 206 -15 179 -54 264 -117 257 -38 -4 -79 -82 -100 -190 -34 -182 18
-328 118 -328 12 0 37 16 55 36 19 19 34 31 34 27 0 -19 42 -53 66 -53 31 0
70 41 79 81 l7 30 20 -41 c21 -42 60 -70 99 -70 12 0 37 16 55 36 19 19 34 31
34 27 0 -19 42 -53 66 -53 51 0 83 59 104 190 16 101 29 172 32 175 2 2 22 6
44 10 l42 6 -10 -53 c-15 -81 -6 -208 18 -249 25 -43 65 -51 100 -18 13 12 26
30 30 41 6 21 24 24 24 4 0 -22 40 -66 60 -66 25 0 84 70 98 117 9 30 9 40 -2
51 -12 12 -19 4 -47 -54 -60 -122 -84 -78 -76 136 3 74 8 145 12 157 5 17 3
25 -10 29 -25 10 -33 -10 -40 -96 -8 -101 -43 -255 -65 -282 -56 -70 -89 82
-55 258 8 43 11 82 7 86 -5 5 -30 -1 -56 -13 -26 -11 -53 -18 -60 -16 -7 3
-16 24 -19 47 -10 74 -72 114 -110 72z m67 -54 c5 -15 6 -31 2 -35 -9 -10 -46
33 -46 54 0 25 34 10 44 -19z m-211 -73 c11 -34 21 -106 24 -166 5 -92 3 -111
-15 -152 -18 -41 -25 -47 -51 -47 -38 0 -57 27 -72 104 -15 74 1 198 36 273
33 72 53 69 78 -12z m-360 -10 c11 -34 21 -106 24 -166 5 -92 3 -111 -15 -152
-18 -41 -25 -47 -51 -47 -38 0 -57 27 -72 104 -15 74 1 198 36 273 33 72 53
69 78 -12z"/>
<path d="M3941 1541 c-16 -17 -33 -46 -36 -64 -11 -48 -15 -50 -37 -22 -35 44
-98 23 -114 -39 l-6 -24 -32 35 c-62 68 -122 37 -157 -79 -26 -85 -31 -203 -9
-203 11 0 17 17 22 60 18 156 44 225 84 225 36 0 66 -71 72 -172 7 -123 34
-96 47 47 13 145 52 190 79 93 8 -29 18 -72 21 -95 7 -45 31 -77 39 -52 2 8 7
50 10 94 11 143 37 195 89 176 47 -18 58 -109 33 -271 -14 -90 -13 -100 9
-100 16 0 19 12 35 117 26 185 -2 282 -88 299 -27 5 -36 2 -61 -25z"/>
</g>
</svg>
