<?xml version="1.0" encoding="UTF-8"?>
<svg version="1.1" xmlns="http://www.w3.org/2000/svg" width="600" height="300">
<path d="M0 0 C198 0 396 0 600 0 C600 99 600 198 600 300 C402 300 204 300 0 300 C0 201 0 102 0 0 Z " fill="#2D3748" transform="translate(0,0)"/>
<path d="M0 0 C4.16482212 1.44493829 5.11114979 3.15979958 7.0625 7.0625 C7.8125 10.9375 7.8125 10.9375 8.0625 14.0625 C8.59359375 13.8459375 9.1246875 13.629375 9.671875 13.40625 C10.37828125 13.1278125 11.0846875 12.849375 11.8125 12.5625 C12.50859375 12.2840625 13.2046875 12.005625 13.921875 11.71875 C16.0625 11.0625 16.0625 11.0625 20.0625 11.0625 C20.18823282 18.35500343 20.18823282 18.35500343 19.5703125 21.83203125 C18.97653525 25.60936806 18.87856014 29.31208598 18.875 33.125 C18.86275391 33.81916016 18.85050781 34.51332031 18.83789062 35.22851562 C18.82630784 39.29407292 19.25937328 42.40635767 21.0625 46.0625 C22.0525 46.0625 23.0425 46.0625 24.0625 46.0625 C27.73938976 37.48309056 29.48176728 28.2973616 30.5546875 19.05078125 C30.70164062 17.79652344 30.84859375 16.54226562 31 15.25 C31.11214844 14.10917969 31.22429687 12.96835938 31.33984375 11.79296875 C32.0625 9.0625 32.0625 9.0625 34.12890625 7.67578125 C34.76699219 7.47339844 35.40507812 7.27101562 36.0625 7.0625 C37.0967085 10.16512551 36.84138486 11.6775474 36.32910156 14.81054688 C35.74060056 19.78154801 35.92024396 24.81400037 35.9375 29.8125 C35.93363281 30.94816406 35.92976563 32.08382812 35.92578125 33.25390625 C35.92707031 34.34058594 35.92835938 35.42726562 35.9296875 36.546875 C35.93137939 38.02752441 35.93137939 38.02752441 35.93310547 39.53808594 C35.95625656 42.18918638 35.95625656 42.18918638 37.0625 45.0625 C40.16104192 44.38170038 40.16104192 44.38170038 41.34375 42.03125 C41.94703125 40.80921875 41.94703125 40.80921875 42.5625 39.5625 C43.78125 37.09375 43.78125 37.09375 45.0625 35.0625 C46.0525 34.7325 47.0425 34.4025 48.0625 34.0625 C48.91400819 39.59730324 46.78660221 42.66774005 43.86328125 47.109375 C41.77263379 49.37688851 39.97197729 50.13067423 37.0625 51.0625 C34.5625 48.75 34.5625 48.75 32.0625 46.0625 C32.0625 45.0725 32.0625 44.0825 32.0625 43.0625 C31.4025 43.0625 30.7425 43.0625 30.0625 43.0625 C29.69125 44.2071875 29.69125 44.2071875 29.3125 45.375 C27.91533232 48.37891051 26.99806259 49.55278209 24.0625 51.0625 C21.5625 51.0625 21.5625 51.0625 19.0625 50.0625 C14.96076927 45.84683231 13.93839425 42.42852949 13.9296875 36.69140625 C13.92839844 35.86962891 13.92710937 35.04785156 13.92578125 34.20117188 C13.92964844 33.35103516 13.93351562 32.50089844 13.9375 31.625 C13.93363281 30.77873047 13.92976563 29.93246094 13.92578125 29.06054688 C13.93224563 24.93304048 14.021228 21.08709894 15.0625 17.0625 C11.1025 17.5575 11.1025 17.5575 7.0625 18.0625 C6.98733154 18.64628418 6.91216309 19.23006836 6.8347168 19.83154297 C6.48167604 22.53471973 6.11589925 25.23603489 5.75 27.9375 C5.63205078 28.8553125 5.51410156 29.773125 5.39257812 30.71875 C2.95893448 48.44066782 2.95893448 48.44066782 -1.9375 54.0625 C-4.75 55.125 -4.75 55.125 -7.9375 55.0625 C-11.3125 53.125 -11.3125 53.125 -13.9375 51.0625 C-14.783125 51.908125 -15.62875 52.75375 -16.5 53.625 C-19.0960991 55.74575701 -19.858177 56.05528882 -23.375 56.375 C-28.37189627 54.53403822 -30.80184651 51.24654828 -33.9375 47.0625 C-34.370625 47.990625 -34.80375 48.91875 -35.25 49.875 C-37.81985294 54.72916667 -37.81985294 54.72916667 -39.9375 56.0625 C-44.19609163 55.88128333 -46.75750623 54.87557141 -49.9375 52.0625 C-50.783125 52.908125 -51.62875 53.75375 -52.5 54.625 C-55.17384409 56.83218262 -55.82523457 57.05659129 -59.5 57.25 C-64.54598601 55.5068412 -66.58566066 52.71188795 -68.91015625 48.15625 C-73.44261762 36.8567184 -71.34751122 24.06030576 -66.9375 13.0625 C-65.10910201 10.08603815 -63.40546031 7.53046031 -60.9375 5.0625 C-58.0625 5.0625 -58.0625 5.0625 -54.9375 6.0625 C-47.59194728 13.61792565 -47.56848385 26.71105879 -46.67138672 36.70605469 C-46.2306974 41.38382078 -45.36224528 45.58135095 -43.9375 50.0625 C-42.6175 50.3925 -41.2975 50.7225 -39.9375 51.0625 C-39.73386841 50.02077637 -39.73386841 50.02077637 -39.52612305 48.95800781 C-38.89560971 45.742203 -38.26032572 42.52735738 -37.625 39.3125 C-37.41166016 38.22066406 -37.19832031 37.12882812 -36.97851562 36.00390625 C-32.05849285 11.18349285 -32.05849285 11.18349285 -24.9375 4.0625 C-22.0625 4.0625 -22.0625 4.0625 -18.9375 5.0625 C-11.57535521 12.63499179 -11.64370489 25.64947316 -10.640625 35.64892578 C-10.10537355 40.90958569 -9.26675598 45.9353698 -7.9375 51.0625 C-6.4525 50.5675 -6.4525 50.5675 -4.9375 50.0625 C-1.99950252 43.72535101 -0.80753178 37.16332988 0.375 30.3125 C0.66600586 28.77142578 0.66600586 28.77142578 0.96289062 27.19921875 C1.13626953 26.21050781 1.30964844 25.22179687 1.48828125 24.203125 C1.64723877 23.31141602 1.80619629 22.41970703 1.9699707 21.50097656 C2.13210177 17.22824535 0.28463968 15.31172989 -2.5 12.1875 C-5.06124716 8.9038498 -5.9375 7.19927935 -5.9375 3.0625 C-4.3241928 0.12058688 -3.34217022 0.07111 0 0 Z " fill="#EBEFF3" transform="translate(302.9375,135.9375)"/>
<path d="M0 0 C3.30735247 2.25867974 4.99427814 3.74063575 6.1015625 7.65625 C7.40202338 14.89803216 5.25460684 20.79856028 1.16796875 26.796875 C-1.8747438 30.55410317 -5.13591731 33.4619241 -9.4375 35.75 C-12.3125 36 -12.3125 36 -14.4375 35.75 C-14.4375 34.43 -14.4375 33.11 -14.4375 31.75 C-12.609375 30.22265625 -12.609375 30.22265625 -10.1875 28.8125 C-4.30003553 25.12474753 -1.12150162 21.62633995 0.5625 14.75 C0.89383066 11.43669343 0.99934615 9.5297775 -0.63671875 6.609375 C-2.30417002 4.56137303 -2.30417002 4.56137303 -4.8203125 4.1484375 C-11.09050355 4.09484612 -15.44490521 4.93697884 -20.48828125 8.78515625 C-25.03904412 13.37239818 -27.64245752 18.90571569 -28 25.375 C-27.11409364 37.46129393 -16.32789868 46.01909491 -8.125 53.9375 C-2.58557696 59.48834453 1.87352072 64.35425823 2.125 72.5 C1.85158645 76.6710109 1.5648085 79.65386936 -1.4375 82.75 C-6.9921017 87.15286014 -13.06910877 87.42709519 -19.9609375 87.18359375 C-26.41514837 86.37863037 -31.17973472 84.47473279 -35.3828125 79.40234375 C-37.65967679 75.89173671 -39.21032876 72.69654685 -40.1875 68.625 C-39.05273752 64.27507715 -36.57109997 60.94459461 -33.4375 57.75 C-31.9525 57.255 -31.9525 57.255 -30.4375 56.75 C-31.1875 63.375 -31.1875 63.375 -33.4375 66.75 C-34.0213196 69.6649255 -34.0213196 69.6649255 -33.4375 72.75 C-29.67598314 77.22315519 -26.24155085 79.89646311 -20.4375 80.75 C-15.57052284 81.11362473 -11.01066573 81.22194972 -6.3125 79.8125 C-3.79501937 77.04327131 -3.30752134 74.90279558 -3.140625 71.1953125 C-4.17845041 62.64690846 -12.23801658 57.03000097 -18.2434082 51.63354492 C-25.67948842 44.87175922 -31.67316089 37.68537169 -32.80859375 27.3828125 C-32.95251299 19.78049037 -32.73584081 14.44412048 -27.4375 8.75 C-19.48924684 0.6875009 -11.34424332 -4.12517939 0 0 Z " fill="#EDF1F5" transform="translate(224.4375,104.25)"/>
<path d="M0 0 C3.65433784 2.98991278 5.61546242 5.51879578 7 10 C7.19174775 12.73240544 7.28443016 15.33459518 7.25 18.0625 C7.24540771 18.80894775 7.24081543 19.55539551 7.23608398 20.32446289 C6.99844313 35.00311375 6.99844313 35.00311375 4 41 C3.01 41 2.02 41 1 41 C0.97269592 39.43759968 0.95346774 37.8750573 0.9375 36.3125 C0.92589844 35.44238281 0.91429687 34.57226562 0.90234375 33.67578125 C1 31 1 31 1.48828125 28.66796875 C2.17001814 25.11356955 2.22339115 21.60549934 2.25 18 C2.270625 17.30132812 2.29125 16.60265625 2.3125 15.8828125 C2.34622769 11.41389379 1.83846649 8.50594436 -1 5 C-3.54327108 4.33314062 -3.54327108 4.33314062 -6 5 C-8.10262894 8.15394341 -8.40447336 9.64589448 -8.8515625 13.32421875 C-8.98046875 14.35224609 -9.109375 15.38027344 -9.2421875 16.43945312 C-9.43167969 18.04723633 -9.43167969 18.04723633 -9.625 19.6875 C-9.7590625 20.77095703 -9.893125 21.85441406 -10.03125 22.97070312 C-10.36128554 25.64634838 -10.6839031 28.32267825 -11 31 C-11.99 31 -12.98 31 -14 31 C-14.18175781 30.38253906 -14.36351562 29.76507813 -14.55078125 29.12890625 C-16.25720447 23.37957263 -18.06654726 17.67694634 -20 12 C-20.66 12 -21.32 12 -22 12 C-24.23691302 20.27657818 -25.8356269 28.50692562 -27 37 C-27.99 37 -28.98 37 -30 37 C-30.16435547 35.37191406 -30.16435547 35.37191406 -30.33203125 33.7109375 C-30.49158608 32.26555848 -30.65177611 30.82024949 -30.8125 29.375 C-30.88275391 28.66214844 -30.95300781 27.94929688 -31.02539062 27.21484375 C-31.55417723 22.60382454 -32.51576842 19.02445516 -35 15 C-37.07690578 14.03955898 -37.07690578 14.03955898 -39 14 C-43.66568331 19.30191285 -44.31498543 26.1718865 -45.125 32.9375 C-45.21136719 33.62134766 -45.29773438 34.30519531 -45.38671875 35.00976562 C-45.59602285 36.67257046 -45.79871722 38.33620513 -46 40 C-47.485 40.495 -47.485 40.495 -49 41 C-49.53682267 29.95039995 -48.85879986 21.55995976 -43.125 11.8125 C-41 10 -41 10 -38.125 9.375 C-33.87173988 10.22565202 -32.11911977 12.02940975 -29 15 C-28.3503125 13.824375 -28.3503125 13.824375 -27.6875 12.625 C-26 10 -26 10 -23 8 C-18.74669397 8.27148762 -16.19063111 9.17751864 -13 12 C-12.9175 11.13375 -12.835 10.2675 -12.75 9.375 C-11.88637078 5.4886685 -10.41050184 3.14095694 -8 0 C-4.99054157 -1.50472922 -3.20590237 -0.88005163 0 0 Z " fill="#EAEDF1" transform="translate(403,144)"/>
<path d="M0 0 C5.82288067 5.07697447 6.59961174 11.78364227 7.17285156 19.25195312 C7.28998214 21.62803048 7.34857481 23.99624349 7.375 26.375 C7.38885742 27.12346191 7.40271484 27.87192383 7.41699219 28.64306641 C7.37352744 33.77991333 6.4843317 37.47455071 4 42 C1 43.125 1 43.125 -2 43 C-4.62681299 41.21751976 -5.76138936 38.87394871 -7 36 C-7.44334497 32.49161377 -7.38056688 28.97129521 -7.375 25.4375 C-7.37411377 24.44838623 -7.37322754 23.45927246 -7.37231445 22.44018555 C-7.2489632 14.83936872 -6.77116054 7.07717357 -1.36328125 1.23046875 C-0.68845703 0.62138672 -0.68845703 0.62138672 0 0 Z " fill="#333C4D" transform="translate(244,145)"/>
<path d="M0 0 C5.82288067 5.07697447 6.59961174 11.78364227 7.17285156 19.25195312 C7.28998214 21.62803048 7.34857481 23.99624349 7.375 26.375 C7.38885742 27.12346191 7.40271484 27.87192383 7.41699219 28.64306641 C7.37352744 33.77991333 6.4843317 37.47455071 4 42 C1 43.125 1 43.125 -2 43 C-4.62681299 41.21751976 -5.76138936 38.87394871 -7 36 C-7.44334497 32.49161377 -7.38056688 28.97129521 -7.375 25.4375 C-7.37411377 24.44838623 -7.37322754 23.45927246 -7.37231445 22.44018555 C-7.2489632 14.83936872 -6.77116054 7.07717357 -1.36328125 1.23046875 C-0.68845703 0.62138672 -0.68845703 0.62138672 0 0 Z " fill="#333C4D" transform="translate(280,144)"/>
<path d="M0 0 C3.25696479 0.41755959 4.63443291 0.63443291 7 3 C6.625 5.625 6.625 5.625 6 8 C4.35 8.33 2.7 8.66 1 9 C-1.14809171 5.77786243 -1.29386153 4.72224599 -1 1 C-0.67 0.67 -0.34 0.34 0 0 Z " fill="#E9EDF1" transform="translate(336,128)"/>
<path d="M0 0 C1.9375 0.6875 1.9375 0.6875 4 2 C4.75 4.625 4.75 4.625 5 7 C3.0625 6.3125 3.0625 6.3125 1 5 C0.25 2.375 0.25 2.375 0 0 Z " fill="#4C5564" transform="translate(301,140)"/>
</svg>
