<?xml version="1.0" encoding="UTF-8"?>
<!DOCTYPE svg PUBLIC "-//W3C//DTD SVG 1.1//EN" "http://www.w3.org/Graphics/SVG/1.1/DTD/svg11.dtd">
<svg xmlns="http://www.w3.org/2000/svg" version="1.1" width="447px" height="342px" style="shape-rendering:geometricPrecision; text-rendering:geometricPrecision; image-rendering:optimizeQuality; fill-rule:evenodd; clip-rule:evenodd" xmlns:xlink="http://www.w3.org/1999/xlink">
<g><path style="opacity:1" fill="#fefefe" d="M -0.5,-0.5 C 148.5,-0.5 297.5,-0.5 446.5,-0.5C 446.5,113.5 446.5,227.5 446.5,341.5C 297.5,341.5 148.5,341.5 -0.5,341.5C -0.5,227.5 -0.5,113.5 -0.5,-0.5 Z"/></g>
<g><path style="opacity:1" fill="#070707" d="M 246.5,126.5 C 249.167,126.5 251.833,126.5 254.5,126.5C 254.5,150.833 254.5,175.167 254.5,199.5C 252.143,199.663 249.81,199.497 247.5,199C 246.897,197.175 246.23,195.341 245.5,193.5C 235.59,202.813 225.756,202.813 216,193.5C 210.802,182.47 210.135,171.136 214,159.5C 218.62,150.062 226.12,146.562 236.5,149C 239.941,150.776 243.108,152.943 246,155.5C 246.5,145.839 246.666,136.172 246.5,126.5 Z"/></g>
<g><path style="opacity:1" fill="#090909" d="M 322.5,126.5 C 325.5,126.5 328.5,126.5 331.5,126.5C 331.667,150.502 331.5,174.502 331,198.5C 328.281,199.444 325.448,199.777 322.5,199.5C 322.5,175.167 322.5,150.833 322.5,126.5 Z"/></g>
<g><path style="opacity:1" fill="#0c0c0c" d="M 119.5,130.5 C 129.138,129.107 137.638,131.441 145,137.5C 145.497,139.81 145.663,142.143 145.5,144.5C 141.441,142.979 137.441,141.146 133.5,139C 122.653,136.342 114.487,139.842 109,149.5C 105.227,161.46 105.894,173.127 111,184.5C 121.678,194.734 132.844,195.067 144.5,185.5C 147.862,190.676 146.529,194.509 140.5,197C 117.68,205.175 103.18,197.675 97,174.5C 94.7877,161.685 97.4543,150.019 105,139.5C 109.343,135.585 114.177,132.585 119.5,130.5 Z"/></g>
<g><path style="opacity:1" fill="#0b0b0b" d="M 171.5,148.5 C 194.26,147.097 204.093,157.763 201,180.5C 196.831,196.177 186.664,202.677 170.5,200C 162.333,197.833 157.167,192.667 155,184.5C 154.152,177.101 154.485,169.767 156,162.5C 158.877,155.114 164.044,150.448 171.5,148.5 Z"/></g>
<g><path style="opacity:1" fill="#090909" d="M 281.5,148.5 C 288.526,147.805 295.193,148.972 301.5,152C 303.041,153.579 304.208,155.413 305,157.5C 306.447,171.427 306.947,185.427 306.5,199.5C 304.167,199.5 301.833,199.5 299.5,199.5C 299.662,197.473 299.495,195.473 299,193.5C 289.543,202.35 279.877,202.683 270,194.5C 264.821,182.357 268.654,174.523 281.5,171C 287.157,170.501 292.824,170.334 298.5,170.5C 298.931,157.867 292.931,153.034 280.5,156C 277.222,157.809 273.889,159.309 270.5,160.5C 270.337,158.143 270.503,155.81 271,153.5C 274.404,151.379 277.904,149.712 281.5,148.5 Z"/></g>
<g><path style="opacity:1" fill="#f8f8f8" d="M 173.5,155.5 C 178.702,154.756 183.369,155.923 187.5,159C 193.074,167.314 193.908,176.147 190,185.5C 185.395,193.214 178.895,195.381 170.5,192C 161.863,182.948 160.363,172.782 166,161.5C 168.114,158.879 170.614,156.879 173.5,155.5 Z"/></g>
<g><path style="opacity:1" fill="#f7f7f7" d="M 228.5,155.5 C 235.992,155.163 241.825,158.163 246,164.5C 246.667,171.167 246.667,177.833 246,184.5C 240.791,192.031 233.958,194.197 225.5,191C 223.348,188.531 221.848,185.698 221,182.5C 219.586,174.441 220.586,166.775 224,159.5C 225.667,158.267 227.167,156.933 228.5,155.5 Z"/></g>
<g><path style="opacity:1" fill="#f8f8f8" d="M 283.5,176.5 C 288.167,176.5 292.833,176.5 297.5,176.5C 298.953,189.213 293.286,194.713 280.5,193C 274.552,186.187 275.552,180.687 283.5,176.5 Z"/></g>
</svg>
